<?xml version="1.0" encoding="UTF-8"?><svg xmlns="http://www.w3.org/2000/svg" xmlns:xlink="http://www.w3.org/1999/xlink" viewBox="0 0 28.77 26.62"><defs><style>.cls-1{fill:url(#linear-gradient-3);}.cls-1,.cls-2,.cls-3,.cls-4{mix-blend-mode:multiply;}.cls-5{fill:url(#linear-gradient-2);}.cls-6{fill:url(#linear-gradient-17);}.cls-7{fill:url(#linear-gradient-15);}.cls-2{fill:url(#linear-gradient-16);}.cls-8{fill:url(#linear-gradient-18);}.cls-9,.cls-10{fill:#d157a0;}.cls-11{isolation:isolate;}.cls-12{stroke-width:2.62px;}.cls-12,.cls-13,.cls-14,.cls-15,.cls-16,.cls-17,.cls-10,.cls-18,.cls-19,.cls-20,.cls-21{mix-blend-mode:screen;}.cls-12,.cls-22,.cls-18,.cls-23{fill:none;stroke-miterlimit:10;}.cls-12,.cls-10,.cls-18{opacity:.5;}.cls-12,.cls-18{stroke:#d157a0;}.cls-24{opacity:.2;}.cls-13{fill:url(#radial-gradient-2);}.cls-13,.cls-14,.cls-16,.cls-17,.cls-25,.cls-19,.cls-26,.cls-20,.cls-27{opacity:.9;}.cls-28{fill:url(#linear-gradient-11);}.cls-14{fill:url(#radial-gradient-5);}.cls-3{fill:url(#linear-gradient-6);}.cls-15{opacity:.6;}.cls-29{fill:url(#linear-gradient-10);}.cls-22{stroke:url(#linear-gradient);}.cls-22,.cls-23{stroke-width:2.48px;}.cls-4{fill:url(#linear-gradient-8);}.cls-16{fill:url(#radial-gradient-4);}.cls-30{fill:url(#linear-gradient-5);}.cls-31{fill:#fee88c;}.cls-32{fill:url(#linear-gradient-7);}.cls-25{fill:url(#radial-gradient-7);}.cls-25,.cls-26,.cls-27{mix-blend-mode:color-dodge;}.cls-33{fill:url(#linear-gradient-9);}.cls-18{stroke-width:1.35px;}.cls-19{fill:url(#radial-gradient);}.cls-26{fill:url(#radial-gradient-6);}.cls-23{stroke:url(#linear-gradient-14);}.cls-20{fill:url(#radial-gradient-3);}.cls-21{fill:#89d5ec;}.cls-34{fill:url(#linear-gradient-19);}.cls-35{fill:url(#linear-gradient-4);}.cls-27{fill:url(#radial-gradient-8);}.cls-36{fill:url(#linear-gradient-12);}.cls-37{fill:url(#linear-gradient-13);}</style><linearGradient id="linear-gradient" x1="-36.88" y1="-311.42" x2="-18.98" y2="-311.42" gradientTransform="translate(-151.92 283.01) rotate(35.21)" gradientUnits="userSpaceOnUse"><stop offset="0" stop-color="#5a5aa7"/><stop offset=".91" stop-color="#89d5ec"/></linearGradient><linearGradient id="linear-gradient-2" x1="-20.06" y1="-319.64" x2="-26.25" y2="-319.64" xlink:href="#linear-gradient"/><linearGradient id="linear-gradient-3" x1="-19.53" y1="-319.44" x2="-20.77" y2="-319.44" xlink:href="#linear-gradient"/><linearGradient id="linear-gradient-4" x1="-21.27" y1="-326.24" x2="-17.65" y2="-326.24" gradientTransform="translate(-151.92 283.01) rotate(35.21)" gradientUnits="userSpaceOnUse"><stop offset="0" stop-color="#fee88c"/><stop offset=".14" stop-color="#fce28c"/><stop offset=".31" stop-color="#f7d38e"/><stop offset=".5" stop-color="#f0ba92"/><stop offset=".7" stop-color="#e59896"/><stop offset=".91" stop-color="#d76c9d"/><stop offset="1" stop-color="#d157a0"/></linearGradient><linearGradient id="linear-gradient-5" x1="-20.12" y1="-308.26" x2="-20.12" y2="-304.28" xlink:href="#linear-gradient"/><linearGradient id="linear-gradient-6" x1="-19.92" y1="-308.13" x2="-19.92" y2="-305.43" xlink:href="#linear-gradient"/><linearGradient id="linear-gradient-7" x1="-1085.49" y1="-308.51" x2="-1085.49" y2="-304.53" gradientTransform="translate(-1054.26 -353.51) rotate(-144.79) scale(1 -1)" xlink:href="#linear-gradient"/><linearGradient id="linear-gradient-8" x1="-1085.28" y1="-308.39" x2="-1085.28" y2="-305.69" gradientTransform="translate(-1054.26 -353.51) rotate(-144.79) scale(1 -1)" xlink:href="#linear-gradient"/><linearGradient id="linear-gradient-9" x1="-19.61" y1="-312.77" x2="-19.31" y2="-312.77" gradientTransform="translate(-300.23 35.9) rotate(89.97)" xlink:href="#linear-gradient"/><linearGradient id="linear-gradient-10" x1="-20.34" y1="-319.66" x2="-18.58" y2="-319.66" xlink:href="#linear-gradient"/><linearGradient id="linear-gradient-11" x1="-18.58" y1="-303.52" x2="-20.33" y2="-303.52" xlink:href="#linear-gradient-4"/><linearGradient id="linear-gradient-12" x1="-19.95" y1="-324.67" x2="-18.97" y2="-324.67" xlink:href="#linear-gradient"/><linearGradient id="linear-gradient-13" x1="-37.42" y1="-318.41" x2="-34.37" y2="-314.5" xlink:href="#linear-gradient-4"/><linearGradient id="linear-gradient-14" x1="-1163.1" y1="-311.59" x2="-1144.94" y2="-311.59" gradientTransform="translate(-1103.82 -388.48) rotate(-144.79) scale(1 -1)" xlink:href="#linear-gradient"/><linearGradient id="linear-gradient-15" x1="-1146.28" y1="-319.9" x2="-1152.47" y2="-319.9" gradientTransform="translate(-1103.82 -388.48) rotate(-144.79) scale(1 -1)" xlink:href="#linear-gradient"/><linearGradient id="linear-gradient-16" x1="-1145.75" y1="-319.7" x2="-1146.99" y2="-319.7" gradientTransform="translate(-1103.82 -388.48) rotate(-144.79) scale(1 -1)" xlink:href="#linear-gradient"/><linearGradient id="linear-gradient-17" x1="-1163.64" y1="-318.67" x2="-1160.58" y2="-314.75" gradientTransform="translate(-1103.82 -388.48) rotate(-144.79) scale(1 -1)" xlink:href="#linear-gradient-4"/><linearGradient id="linear-gradient-18" x1="13.79" y1="13.44" x2="15.32" y2="13.44" gradientTransform="matrix(1, 0, 0, 1, 0, 0)" xlink:href="#linear-gradient-4"/><linearGradient id="linear-gradient-19" x1="12.75" y1="15.19" x2="13.82" y2="15.19" gradientTransform="matrix(1, 0, 0, 1, 0, 0)" xlink:href="#linear-gradient-4"/><radialGradient id="radial-gradient" cx="17.55" cy="1.97" fx="17.55" fy="1.97" r=".42" gradientTransform="matrix(1, 0, 0, 1, 0, 0)" gradientUnits="userSpaceOnUse"><stop offset=".31" stop-color="#fff"/><stop offset=".9" stop-color="#fff" stop-opacity="0"/></radialGradient><radialGradient id="radial-gradient-2" cx="18.76" cy="13.62" fx="18.76" fy="13.62" r=".25" xlink:href="#radial-gradient"/><radialGradient id="radial-gradient-3" cx="4.95" cy="16.61" fx="4.95" fy="16.61" r=".27" xlink:href="#radial-gradient"/><radialGradient id="radial-gradient-4" cx="10.55" cy="6.67" fx="10.55" fy="6.67" r=".27" xlink:href="#radial-gradient"/><radialGradient id="radial-gradient-5" cx="8.28" cy="10.41" fx="8.28" fy="10.41" r=".43" xlink:href="#radial-gradient"/><radialGradient id="radial-gradient-6" cx="23.23" cy="6.28" fx="23.23" fy="6.28" r=".75" gradientTransform="matrix(1, 0, 0, 1, 0, 0)" gradientUnits="userSpaceOnUse"><stop offset="0" stop-color="#fff"/><stop offset=".03" stop-color="#fff" stop-opacity=".96"/><stop offset=".18" stop-color="#fff" stop-opacity=".71"/><stop offset=".34" stop-color="#fff" stop-opacity=".49"/><stop offset=".49" stop-color="#fff" stop-opacity=".32"/><stop offset=".64" stop-color="#fff" stop-opacity=".18"/><stop offset=".78" stop-color="#fff" stop-opacity=".08"/><stop offset=".9" stop-color="#fff" stop-opacity=".02"/><stop offset="1" stop-color="#fff" stop-opacity="0"/></radialGradient><radialGradient id="radial-gradient-7" cx="12.63" cy="23.47" fx="12.63" fy="23.47" r=".74" xlink:href="#radial-gradient-6"/><radialGradient id="radial-gradient-8" cx="18.46" cy="18.39" fx="18.46" fy="18.39" r="1.19" xlink:href="#radial-gradient-6"/></defs><g class="cls-11"><g id="Layer_2"><g id="Layer_1-2"><g><g class="cls-24"><path class="cls-12" d="M26.56,13.31c0,6.63-5.37,12-12,12S2.56,19.94,2.56,13.31,7.93,1.31,14.56,1.31s12,5.37,12,12Z"/><path class="cls-18" d="M26,13.31c0,6.32-5.12,11.44-11.44,11.44S3.11,19.63,3.11,13.31,8.24,1.87,14.56,1.87s11.44,5.12,11.44,11.44Z"/><path class="cls-10" d="M25.4,13.31c0,5.99-4.85,10.84-10.84,10.84S3.72,19.3,3.72,13.31,8.57,2.47,14.56,2.47s10.84,4.85,10.84,10.84Z"/></g><g class="cls-15"><path class="cls-9" d="M24.01,17.08l.31-2.06c.16-.05,.27-.2,.27-.37,0-.22-.18-.4-.4-.4s-.4,.18-.4,.4c0,.13,.07,.24,.17,.32l-.31,2.06c-.12,0-.23,.04-.33,.08l-1.35-1.76c.02-.05,.04-.11,.04-.17,0-.22-.18-.4-.4-.4s-.4,.18-.4,.4,.18,.4,.4,.4c.02,0,.04,0,.07-.01l1.35,1.76c-.13,.15-.22,.35-.22,.57,0,.13,.03,.25,.08,.37l-1.9,1.39c-.05-.03-.11-.05-.18-.05-.22,0-.4,.18-.4,.4,0,.03,.01,.06,.02,.09l-4.01,3.56-1.65-1.41s.02-.06,.02-.09c0-.22-.18-.4-.4-.4-.06,0-.11,.01-.16,.03l-2.07-1.71s.02-.05,.02-.08c0-.1-.04-.19-.11-.26l1.1-2.92c.27,0,.49-.22,.49-.5,0-.1-.03-.19-.08-.27l1.33-1.81c.11,.05,.24,.08,.37,.08,.49,0,.88-.4,.88-.88s-.4-.88-.88-.88c-.26,0-.49,.11-.65,.29l-1.66-.99s0-.01,0-.02c0-.22-.18-.4-.4-.4-.01,0-.02,0-.04,0l-.95-1.49c.03-.06,.06-.12,.06-.2,0-.02,0-.04-.01-.06l1.9-1.38c.05,.03,.11,.05,.18,.05,.11,0,.21-.04,.28-.12l2.04,.67c.03,.19,.19,.33,.38,.33,.22,0,.4-.18,.4-.4,0-.04-.01-.08-.02-.12l.91-.91c.06,.03,.12,.06,.19,.06,.22,0,.4-.18,.4-.4s-.18-.4-.4-.4-.4,.18-.4,.4c0,0,0,.02,0,.03l-.97,.97s-.08-.02-.12-.02c-.11,0-.21,.04-.28,.12l-2.04-.67c-.02-.12-.1-.23-.2-.28v-1.46c.21-.07,.37-.28,.37-.52,0-.3-.25-.55-.55-.55-.06,0-.12,.01-.18,.03l-1.82-2.3c.02-.05,.04-.11,.04-.16,0-.22-.18-.4-.4-.4s-.4,.18-.4,.4,.18,.4,.4,.4c.03,0,.05,0,.07-.01l1.82,2.3c-.05,.09-.09,.19-.09,.3,0,.24,.16,.44,.37,.52v1.46c-.13,.07-.22,.2-.22,.35,0,.02,0,.04,.01,.06l-1.9,1.38c-.05-.03-.11-.05-.18-.05-.1,0-.19,.04-.26,.1l-3.37-1.34c0-.05,.02-.1,.02-.15,0-.49-.4-.88-.88-.88s-.88,.4-.88,.88,.4,.88,.88,.88c.31,0,.58-.16,.74-.4l3.37,1.34c.02,.2,.18,.36,.39,.36,.01,0,.02,0,.04,0l.95,1.49c-.03,.06-.06,.12-.06,.2,0,.07,.02,.13,.05,.18l-.52,1.67c-.18,.03-.33,.19-.33,.38,0,0,0,.02,0,.03l-1.64,.99c-.06-.04-.13-.06-.2-.06-.08,0-.16,.03-.22,.08l-1.58-.82s0-.04,0-.05c0-.27-.22-.5-.5-.5s-.5,.22-.5,.5,.22,.5,.5,.5c.13,0,.24-.05,.33-.13l1.57,.81h0c0,.1,.04,.18,.09,.25l-.51,1.13c-.21,.01-.38,.18-.38,.39,0,.06,.02,.12,.04,.17l-1.57,2.02s-.05-.01-.07-.01c-.22,0-.4,.18-.4,.4s.18,.4,.4,.4,.4-.18,.4-.4c0-.06-.02-.12-.04-.17l1.57-2.02s.05,.01,.07,.01c.22,0,.4-.18,.4-.4,0-.09-.04-.18-.09-.25l.51-1.13c.21-.01,.38-.18,.38-.39,0,0,0-.02,0-.03l1.64-.99c.06,.04,.13,.06,.2,.06,.22,0,.4-.18,.4-.4,0-.11-.05-.21-.12-.28l.48-1.56s.02,0,.04,0c.08,0,.14-.03,.21-.07l1.66,.99c-.03,.09-.05,.18-.05,.29,0,.23,.09,.43,.23,.59l-1.33,1.81s-.08-.02-.13-.02c-.28,0-.5,.22-.5,.5,0,.15,.07,.28,.17,.37l-1.1,2.92c-.2,.02-.35,.18-.35,.39,0,.22,.18,.4,.4,.4,.06,0,.11-.01,.16-.03l2.07,1.71s-.02,.05-.02,.08c0,.22,.18,.4,.4,.4,.05,0,.1-.01,.15-.03l1.88,1.61,4.24-3.77s.09,.03,.14,.03c.22,0,.4-.18,.4-.4,0-.02,0-.04-.01-.06l1.9-1.4c.16,.14,.36,.23,.59,.23,.49,0,.88-.4,.88-.88,0-.38-.24-.7-.58-.83Z"/></g><g><g><g><path class="cls-22" d="M1.24,4.16c-.16,.31,8.25,16.25,8.25,16.25"/><path class="cls-5" d="M17.79,8.91C12.72-3.8,2.9,6.54,.77,4.83c1.45,1.71,5.92-2.7,10.23-.41,4.31,2.3,3.62,8.97,3.62,8.97l3.16-4.48Z"/><path class="cls-1" d="M17.19,7.56c-.25,1.16-1.24,1.3-2.28,1.14-.31-.05-.57-.13-.81-.24,.77,2.45,.51,4.93,.51,4.93l3.16-4.48c-.19-.48-.39-.93-.6-1.35Z"/><path class="cls-21" d="M.78,4.81c.13,.16,.3,.26,.48,.33,3.13-.16,11.87-7.72,16.38,3.98l.16-.22C12.73-3.81,2.9,6.52,.78,4.81Z"/><g><path class="cls-35" d="M21.74,3.2l-4.04,2.59s.94,.12,.77,1.24l.39,.25,.37,.28c1-.54,1.43,.31,1.43,.31l1.09-4.67Z"/><path class="cls-21" d="M18.16,6c.21,.17,.39,.48,.3,1.03l.12,.08c.1-.65-.18-.96-.43-1.11Z"/><path class="cls-21" d="M21.73,3.19l-4.04,2.59s.08,0,.18,.05l3.81-2.44,.04-.2Z"/><g><path class="cls-30" d="M9.58,20.18c-.47,.67-1.76,.44-1.76,.44l-1.83,2.6s1.06-.78,2.05-.6l1.54-2.44Z"/><path class="cls-3" d="M9.58,20.18c-.28,.4-.86,.48-1.28,.48,.14,.71-.28,1.39-.66,1.94,.13,0,.27,0,.4,.02l1.54-2.44Z"/></g><g><path class="cls-32" d="M9.82,20.35c-.47,.67,.17,1.81,.17,1.81l-1.83,2.6s.38-1.26-.12-2.14l1.78-2.27Z"/><path class="cls-4" d="M9.82,20.35c-.28,.4-.16,.97-.02,1.37-.72,.11-1.22,.73-1.6,1.27-.04-.13-.09-.25-.15-.37l1.78-2.27Z"/></g><rect class="cls-33" x="4.41" y="16.11" width="16.23" height=".29" transform="translate(-7.98 17.1) rotate(-54.75)"/><path class="cls-29" d="M14.15,13.95c.1-.14,4.01-5.5,5.41-6.14l-.72-.51h0l-.72-.51c-.13,1.54-3.88,7.01-3.98,7.15h0Z"/><polygon class="cls-28" points="7.66 22.76 6.55 23.22 6.49 24.71 7.97 24.22 8.02 23.02 7.66 22.76"/><polygon class="cls-36" points="18.44 7.01 19.93 5.77 19.25 7.58 18.44 7.01"/><polygon class="cls-21" points="7.82 20.62 5.98 23.22 6.17 23.09 7.82 20.62"/></g><path class="cls-37" d="M1.94,4.65c-.27,.38-.8,.47-1.18,.2-.38-.27-.48-.8-.2-1.18,.27-.38,.8-.48,1.18-.2,.38,.27,.48,.8,.2,1.18Z"/><path class="cls-23" d="M27.87,22.95c-.24,.25-18.38-2.34-18.38-2.34"/><path class="cls-7" d="M17.85,8.96c13.67,.52,7.22,13.24,9.55,14.66-2.1-.8,.56-6.48-3.05-9.78-3.61-3.29-9.67-.4-9.67-.4l3.16-4.48Z"/><path class="cls-2" d="M19.32,9.07c-1,.63-.81,1.6-.31,2.53,.15,.28,.32,.49,.49,.68-2.57,.09-4.82,1.17-4.82,1.17l3.16-4.48c.52,.02,1.01,.06,1.47,.11Z"/><path class="cls-21" d="M27.41,23.61c-.2-.07-.35-.19-.47-.34-.9-3,3.3-13.77-9.23-14.1l.16-.22c13.67,.52,7.22,13.24,9.55,14.66Z"/><path class="cls-6" d="M27.18,22.46c-.27,.38-.18,.91,.2,1.18,.38,.27,.91,.18,1.18-.2,.27-.38,.18-.91-.2-1.18-.38-.27-.91-.18-1.18,.2Z"/></g><path class="cls-8" d="M15.32,13.44c0,.42-.34,.77-.77,.77s-.77-.34-.77-.77,.34-.77,.77-.77,.77,.34,.77,.77Z"/><path class="cls-34" d="M13.82,15.19c0,.3-.24,.53-.53,.53s-.53-.24-.53-.53,.24-.53,.53-.53,.53,.24,.53,.53Z"/></g><path class="cls-31" d="M15,6.6c.19,.1,.38,.19,.59,.25-.2-.19-.43-.34-.67-.47l-.09-.05-.03,.1c-.04,.14-.08,.27-.12,.41-.03,.14-.06,.28-.07,.42,.08-.13,.14-.26,.19-.39,.02-.05,.04-.11,.06-.16l.32,.78-.31,.13,.05,.11,.31-.13,.43,.72h0l-.28-.78,.31-.13-.05-.11-.31,.13-.34-.81Z"/></g><g class="cls-17"><path class="cls-19" d="M17.55,1.53c0,.42-.4,.44-.4,.44,0,0,.4,.02,.4,.44,0-.42,.4-.44,.4-.44,0,0-.4-.02-.4-.44Z"/><path class="cls-13" d="M18.76,13.36c0,.25-.24,.26-.24,.26,0,0,.24,.01,.24,.26,0-.25,.23-.26,.23-.26,0,0-.23-.01-.23-.26Z"/><path class="cls-20" d="M4.95,16.32c0,.27-.26,.28-.26,.28,0,0,.26,.01,.26,.28,0-.27,.26-.28,.26-.28,0,0-.26-.01-.26-.28Z"/><path class="cls-16" d="M10.55,6.39c0,.27-.26,.28-.26,.28,0,0,.26,.01,.26,.28,0-.27,.26-.28,.26-.28,0,0-.26-.01-.26-.28Z"/><path class="cls-14" d="M8.28,9.95c0,.43-.41,.45-.41,.45,0,0,.41,.02,.41,.45,0-.43,.41-.45,.41-.45,0,0-.41-.02-.41-.45Z"/><path class="cls-26" d="M23.23,5.78c0,.47-.45,.5-.45,.5,0,0,.45,.03,.45,.5,0-.47,.45-.5,.45-.5,0,0-.45-.03-.45-.5Z"/><path class="cls-25" d="M12.63,22.98c0,.47-.45,.49-.45,.49,0,0,.45,.03,.45,.49,0-.47,.45-.49,.45-.49,0,0-.45-.03-.45-.49Z"/><path class="cls-27" d="M18.46,17.6c0,.75-.72,.79-.72,.79,0,0,.72,.04,.72,.79,0-.75,.72-.79,.72-.79,0,0-.72-.04-.72-.79Z"/></g></g></g></g></g></svg>