<?xml version="1.0" encoding="UTF-8"?><svg id="Layer_2" xmlns="http://www.w3.org/2000/svg" viewBox="0 0 55.74 75.16"><defs><style>.cls-1{stroke-width:.8px;}.cls-1,.cls-2,.cls-3{stroke-miterlimit:10;}.cls-1,.cls-3{fill:none;stroke:#f5c775;}.cls-4{fill:#d94b4b;}.cls-2{stroke:#d94b4b;}.cls-2,.cls-3{stroke-width:1.37px;}.cls-2,.cls-5{fill:#f8e67c;}.cls-6{fill:#dd6264;}.cls-7{fill:#f5c775;}</style></defs><g id="Layer_1-2"><g><path class="cls-6" d="M27.61,18.36c-5.4-6.73-13.31-9.31-19.12-6.83C2,14.3,.56,22.35,.29,23.82c-1.73,9.71,4.54,17.97,9.56,24.58,2.97,3.91,8.14,9.74,16.39,15.02,7.67-5.17,12.93-10.71,16.39-15.02,6.12-7.63,13.3-16.58,10.93-25.95-.18-.73-2.38-8.87-9.56-10.93-5.59-1.6-12.18,1.07-16.39,6.83Z"/><g><path class="cls-2" d="M45.79,2.87C34.41,11.07,23.03,19.26,11.65,27.46h15.02c-6.37,9.11-12.75,18.21-19.12,27.32h10.93c-4.55,5.46-9.11,10.93-13.66,16.39,12.52-9.33,25.04-18.67,37.56-28-5.46,.91-10.93,1.82-16.39,2.73,7.74-9.11,15.48-18.21,23.22-27.32l-14.32,.03c3.64-5.25,7.27-10.49,10.91-15.74Z"/><path class="cls-5" d="M45.79,2.87C34.41,11.07,23.03,19.26,11.65,27.46h15.02c-6.37,9.11-12.75,18.21-19.12,27.32h10.93c-4.55,5.46-9.11,10.93-13.66,16.39,12.52-9.33,25.04-18.67,37.56-28-5.46,.91-10.93,1.82-16.39,2.73,7.74-9.11,15.48-18.21,23.22-27.32l-14.32,.03c3.64-5.25,7.27-10.49,10.91-15.74Z"/><path class="cls-7" d="M45.79,2.87c-7.65,6.59-15.3,13.19-22.95,19.78,4.12-.19,8.24-.38,12.36-.56-6.67,9.89-13.34,19.78-20.01,29.67,4.63-1.06,9.26-2.13,13.89-3.19L4.82,71.17c4.55-5.46,9.11-10.93,13.66-16.39H7.55c6.37-9.11,12.75-18.21,19.12-27.32H11.65C23.03,19.26,34.41,11.07,45.79,2.87Z"/><circle class="cls-3" cx="52.04" cy="7.28" r="3.02"/><circle class="cls-3" cx="27.45" cy="5.46" r="3.11"/><circle class="cls-1" cx="20.98" cy="67.4" r="2.03"/><path class="cls-6" d="M2.34,36.85c5.91-1.4,10.97-1.78,14.67-1.84,6.05-.09,10.71,.67,14.49,1.68,4.91,1.31,7.39,2.01,8.41,4.14,1.84,3.84-2.14,9.6-5.82,12.42-1.01,.77-4.75,3.42-9.83,3.11-2.97-.19-5.04-1.3-7.18-2.46-4.45-2.4-7.07-5.52-9.03-7.89-1.65-2-3.83-5.03-5.71-9.17Z"/><path class="cls-4" d="M51.59,17.81c-.4,1.99-4.16,19.17-20.34,26.65-9.91,4.58-19.18,3.07-22.63,2.32,1.95,2.98,4.82,6.71,8.91,10.36,3.1,2.77,6.14,4.81,8.71,6.3,9.31-6.63,15.44-13.55,19.24-18.52,8.94-11.73,8.73-17.72,8.48-19.99-.34-3.06-1.45-5.49-2.37-7.11Z"/></g></g></g></svg>