<?xml version="1.0" encoding="UTF-8"?><svg id="Layer_1" xmlns="http://www.w3.org/2000/svg" viewBox="0 0 1080 359.31"><defs><style>.cls-1{fill:#ec1c24;}.cls-2{fill:#231f20;}</style></defs><polygon class="cls-1" points="481.77 155.15 400.35 155.15 400.35 85.64 348.73 85.64 348.73 274.37 400.35 274.37 400.35 198.73 481.77 198.73 481.77 274.37 533.26 274.37 533.26 85.64 481.77 85.64 481.77 155.15"/><path class="cls-1" d="M607.51,157.89c4.33-25.49,18.42-38.81,41.22-38.81s38.82,15.69,39.55,38.81h-80.77Zm41.53-77.21c-56.8,0-94.88,39.17-94.88,97.97s37.66,100.01,96.5,100.01c46.99,0,79.26-21.54,91.35-62.36h-55.71c-5.04,14.89-16.81,22.38-34.54,22.38-26.63,0-42.58-15.78-43.94-43.18h134.19c0-6.61,.37-8.94,.37-12.11,0-63.53-36.02-102.7-93.34-102.7Z"/><path class="cls-1" d="M830.11,84.02c-18.25,3.61-65.04,17.71-65.04,89.16v101.19h52.12v-83.61c0-30.92,4.3-45.44,17.25-54.81,7.88-6.31,19.28-9.82,32.55-9.82,5.48,0,7.84,.39,14.15,1.54v-42.84s-20.87-6.71-51.03-.81"/><path class="cls-1" d="M984.34,239.4c-27.53,0-43.54-22.34-43.54-59.59s15.7-59.61,43.54-59.61,43.16,21.61,43.16,59.26-15.75,59.94-43.16,59.94m0-158.76c-58.49,.04-96.14,38.8-96.14,99.17s37.64,98.85,96.14,98.85,95.66-38.86,95.66-98.85-37.71-99.17-95.66-99.17Z"/><polygon class="cls-2" points="224.74 306.73 224.74 188.37 142.91 247.24 224.74 306.73"/><polygon class="cls-1" points="0 299.8 81.89 359.31 81.89 113.03 0 52.58 0 299.8"/><polygon class="cls-2" points="142.91 0 142.91 172.2 224.74 115.49 224.74 60.45 142.91 0"/></svg>