<?xml version="1.0" encoding="UTF-8"?><svg id="Layer_2" xmlns="http://www.w3.org/2000/svg" viewBox="0 0 119.35 60.91"><defs><style>.cls-1{fill:#253a7c;}</style></defs><g id="Layer_1-2"><path class="cls-1" d="M65.45,0c1.06,.1,2.12,.23,3.18,.29,8.11,.53,16.06,1.93,23.78,4.48,6.97,2.3,13.54,5.37,19.12,10.27,2.69,2.36,4.95,5.08,6.38,8.41,2.29,5.33,1.78,10.48-1.12,15.42-2.58,4.4-6.36,7.61-10.59,10.32-6,3.85-12.57,6.36-19.41,8.2-5.47,1.46-11.03,2.4-16.66,2.96-5.86,.58-11.74,.72-17.61,.38-10.01-.58-19.8-2.29-29.2-5.9-5.45-2.1-10.59-4.77-15.07-8.59-3.24-2.77-5.94-5.98-7.33-10.1C-.91,30.73,.06,25.68,3.16,21.02c3.05-4.6,7.31-7.86,12.01-10.57,6.95-4,14.48-6.47,22.29-8.13C43.1,1.12,48.8,.41,54.55,.16c.32-.02,.64-.1,.97-.16h9.93Zm-1.48,4.42c-1.37,0-2.75-.03-4.12,0-3.19,.09-5.81,1.47-7.84,3.88-3.18,3.78-4.68,8.22-4.65,13.14,.02,2.42,1.27,4.1,3.58,4.77,1.23,.36,2.56,.51,3.84,.48,4.04-.1,7.88-1.24,11.66-2.55,7.89-2.75,15.39-6.33,22.54-10.65,.85-.51,1.71-1.02,2.49-1.63,1.19-.94,1.08-1.81-.27-2.53-.54-.28-1.1-.57-1.68-.72-3.91-1-7.8-2.1-11.76-2.92-4.54-.93-9.15-1.39-13.8-1.28Zm-7.47,51.88c1.27,0,2.55,.06,3.81-.01,2.12-.11,4.04-.77,5.6-2.29,3.34-3.23,5.61-7.07,6.36-11.69,.33-2.01,.15-4-1.31-5.62-1.3-1.45-3.05-1.99-4.89-1.98-2.1,.01-4.22,.18-6.29,.52-7.21,1.19-14,3.71-20.49,7.05-4.1,2.11-8.07,4.45-11.6,7.48-.77,.67-.73,1.32,.2,1.75,.67,.31,1.35,.62,2.06,.8,3.21,.79,6.4,1.64,9.65,2.26,5.58,1.06,11.21,1.73,16.89,1.73h0ZM38.14,6.99c-2.7,.09-5.16,1.01-7.64,1.86-4.93,1.68-9.76,3.56-14.19,6.35-3.23,2.04-6.23,4.36-8.5,7.49-3.38,4.64-3.73,9.49-.88,14.51,1.48,2.6,3.43,4.83,5.73,6.72,.83,.69,1.8,1.27,2.79,1.7,1.28,.56,2.12,.28,2.86-.92,.52-.84,.95-1.75,1.29-2.68,3.86-10.48,9.59-19.89,16.41-28.67,1.3-1.68,2.58-3.36,3.82-5.07,.5-.69,.27-1.13-.59-1.24-.38-.05-.76-.04-1.1-.06ZM114.14,30.34c-.02-.29-.03-.71-.05-1.12-.01-.18-.03-.36-.06-.53-1.1-6.11-4.54-10.43-10.01-13.18-1.35-.68-2-.38-2.68,.99-2.14,4.35-4.19,8.75-6.44,13.04-3.66,6.96-7.51,13.82-12.33,20.08-.73,.95-1.47,1.9-2.12,2.91-.19,.29-.19,.78-.1,1.14,.03,.12,.59,.22,.88,.17,5.81-.97,11.37-2.73,16.69-5.24,4.36-2.05,8.46-4.52,11.78-8.09,2.63-2.83,4.41-6.06,4.43-10.17h0Z"/></g></svg>