<?xml version="1.0" encoding="UTF-8"?>
<svg id="Layer_2" data-name="Layer 2" xmlns="http://www.w3.org/2000/svg" xmlns:xlink="http://www.w3.org/1999/xlink" viewBox="0 0 51.28 51.24">
  <defs>
    <style>
      .cls-1 {
        fill: url(#linear-gradient);
      }
    </style>
    <linearGradient id="linear-gradient" x1="12.72" y1="861.19" x2="34.47" y2="906.82" gradientTransform="translate(0 913.94) scale(1 -1)" gradientUnits="userSpaceOnUse">
      <stop offset="0" stop-color="#ee1c4c"/>
      <stop offset="1" stop-color="#e6519d"/>
    </linearGradient>
  </defs>
  <g id="Layer_1-2" data-name="Layer 1">
    <path class="cls-1" d="m51.24,25.62C51.24,11.47,39.77,0,25.62,0S0,11.47,0,25.62s11.47,25.62,25.62,25.62c.58,0,1.14,0,1.72-.07-.6-1.63-1.16-2.92-1.56-3.39-1.47-1.78-5.37-4.41-5.37-4.41,0,0-5.7-5.41-7.04-6.44-1.34-1.05-4.26-1.87-4.83-3.23s2.32-1.89,3.54-1.78c1.23.13,5.59,2.27,6.91,3.36s2.56,4.39,2.56,4.39l1.25,2.5s.65,1.27,1.25,1.02c.58-.22.16-1.31.16-1.31l-.62-1.58s-.53-2.12-.4-2.18c.13-.07,1,1.49,1.31,1.94.29.45,1.92,1.98,1.92,1.98,0,0,1.38,1.54,2.05.89s-.31-1.47-.31-1.47c0,0-1.51-1.45-1.72-1.83-.22-.36-1.34-2.07-1.05-2.27s.62.18.62.18c0,0,.98,1.23,1.27,1.38.29.16,2.12,1.78,2.34,1.98s.82.87.82.87c0,0,.49.4,1.05.04.56-.38.27-1.11-.02-1.54s-3.83-3.9-3.83-3.9c0,0-.69-.67-.51-1.05.18-.38,1.05.2,1.05.2l3.94,1.8s1.09.33,1.36-.31c.27-.65-.62-1.29-.62-1.29,0,0-7.46-3.94-7.46-4.95s2.14-1.27,2.14-1.27c0,0,1.31-.27,1.76-.6.45-.33,1.23-1.4.62-1.67-.6-.27-1.83.36-2.58.42s-4.3.04-4.3.04c0,0-1.49.25-2.58.22-1.43-5.57-3.83-12.45-3.83-12.45,0,0-.49-2.38.94-3.03,1.4-.65,2.67,1.56,2.67,1.56l3.68,8.89s.51,2.25,1.38,1.92c.85-.33.78-2.45.78-2.45,0,0-.47-10.98-.31-12.12.16-1.11.85-2.76,2.29-2.54,1.45.22,1.65,1.63,1.65,1.63,0,0-.07,2,0,2.65s.56,6.06.8,6.75c.22.67-.04,4.17-.04,4.17,0,0-.04,1.14.76,1.23.78.09,1.54-4.37,1.74-5.28s-.04-5.57-.04-5.57c0,0-.33-2.78,1.72-2.83,2.05-.07,1.98,4.52,1.98,4.52,0,0,.29,4.92.09,6.1-.18,1.16-1.14,5.03-.82,5.12s2.65-4.14,2.65-4.14l1.4-3.5s.94-2.41,2.25-1.89.45,3.54.45,3.54l-1.74,5.93-2.27,4.83s-.07,6.93-.2,8.58c.07,2.12.67,4.77,1.49,7.42,6.88-4.59,11.41-12.43,11.41-21.32l-.04-.02Z"/>
  </g>
</svg>