<?xml version="1.0" encoding="UTF-8"?><svg xmlns="http://www.w3.org/2000/svg" xmlns:xlink="http://www.w3.org/1999/xlink" viewBox="0 0 34.56 18.11"><defs><style>.cls-1{fill:url(#linear-gradient-2);}.cls-2{fill:url(#linear-gradient-11);}.cls-2,.cls-3,.cls-4,.cls-5,.cls-6,.cls-7,.cls-8,.cls-9{mix-blend-mode:multiply;}.cls-3{fill:url(#linear-gradient-10);}.cls-10{isolation:isolate;}.cls-11{opacity:.2;}.cls-4{fill:url(#linear-gradient-6);}.cls-5{fill:url(#linear-gradient-5);}.cls-6{fill:url(#linear-gradient-9);}.cls-7{fill:url(#linear-gradient-8);}.cls-8{fill:url(#linear-gradient-12);}.cls-12{fill:url(#linear-gradient-3);}.cls-9{fill:url(#linear-gradient-7);}.cls-13{fill:url(#linear-gradient);}.cls-14{fill:url(#linear-gradient-4);}</style><linearGradient id="linear-gradient" x1="2965.94" y1="332.57" x2="2984.03" y2="332.57" gradientTransform="translate(-322.32 2984.03) rotate(-90)" gradientUnits="userSpaceOnUse"><stop offset="0" stop-color="#fecc90"/><stop offset="1" stop-color="#f5887d"/></linearGradient><linearGradient id="linear-gradient-2" x1="2969.58" y1="330.73" x2="2980.39" y2="330.73" gradientTransform="translate(-322.32 2984.03) rotate(-90)" gradientUnits="userSpaceOnUse"><stop offset=".25" stop-color="#83afd3"/><stop offset=".41" stop-color="#96a6cb"/><stop offset=".94" stop-color="#d68db4"/></linearGradient><linearGradient id="linear-gradient-3" x1="2965.94" y1="346.62" x2="2984.03" y2="346.62" xlink:href="#linear-gradient-2"/><linearGradient id="linear-gradient-4" x1="2969.58" y1="348.47" x2="2980.39" y2="348.47" xlink:href="#linear-gradient"/><linearGradient id="linear-gradient-5" x1="0" y1="9.06" x2="20.51" y2="9.06" gradientTransform="matrix(1, 0, 0, 1, 0, 0)" gradientUnits="userSpaceOnUse"><stop offset="0" stop-color="#fff"/><stop offset=".11" stop-color="#fafafa"/><stop offset=".23" stop-color="#ececec"/><stop offset=".36" stop-color="#d5d5d5"/><stop offset=".5" stop-color="#b5b5b5"/><stop offset=".64" stop-color="#8b8b8b"/><stop offset=".79" stop-color="#595959"/><stop offset=".93" stop-color="#1e1e1e"/><stop offset="1" stop-color="#000"/></linearGradient><linearGradient id="linear-gradient-6" x1="2975" y1="344.93" x2="2975" y2="324.48" gradientTransform="translate(-322.32 2984.03) rotate(-90)" xlink:href="#linear-gradient-5"/><linearGradient id="linear-gradient-7" x1="2974.98" y1="341.44" x2="2974.98" y2="328.94" gradientTransform="translate(-322.32 2984.03) rotate(-90)" xlink:href="#linear-gradient-5"/><linearGradient id="linear-gradient-8" x1="3.64" y1="9.05" x2="13.18" y2="9.05" xlink:href="#linear-gradient-5"/><linearGradient id="linear-gradient-9" x1="2974.97" y1="361.52" x2="2974.97" y2="340.94" gradientTransform="translate(-322.32 2984.03) rotate(-90)" xlink:href="#linear-gradient-5"/><linearGradient id="linear-gradient-10" x1="14.06" y1="9.05" x2="34.56" y2="9.05" xlink:href="#linear-gradient-5"/><linearGradient id="linear-gradient-11" x1="2974.98" y1="340.67" x2="2974.98" y2="352.58" gradientTransform="translate(-322.32 2984.03) rotate(-90)" xlink:href="#linear-gradient-5"/><linearGradient id="linear-gradient-12" x1="21.39" y1="9.05" x2="30.92" y2="9.05" xlink:href="#linear-gradient-5"/></defs><g class="cls-10"><g id="Layer_2"><g id="Layer_1-2"><g><path class="cls-13" d="M20.51,9.96c0,.27-.1,.53-.3,.73l-4.76,4.76c-3.53,3.53-9.27,3.53-12.8,0-1.71-1.71-2.65-3.98-2.65-6.4S.94,4.36,2.65,2.65C4.36,.94,6.63,0,9.05,0s4.69,.94,6.4,2.65c.41,.41,.41,1.06,0,1.47-.41,.41-1.06,.41-1.47,0-1.32-1.32-3.07-2.04-4.93-2.04s-3.61,.73-4.93,2.04c-1.32,1.32-2.04,3.07-2.04,4.93s.73,3.61,2.04,4.93c2.72,2.72,7.14,2.72,9.86,0l4.76-4.76c.41-.41,1.06-.41,1.47,0,.2,.2,.3,.47,.3,.73Z"/><path class="cls-1" d="M13.18,5.96c0,.27-.1,.53-.3,.73-.41,.41-1.06,.41-1.47,0-1.3-1.3-3.41-1.3-4.71,0-.63,.63-.98,1.47-.98,2.36s.35,1.73,.98,2.36c.63,.63,1.47,.98,2.36,.98s1.73-.35,2.36-.98c.41-.41,1.06-.41,1.47,0,.41,.41,.41,1.06,0,1.47-1.02,1.02-2.38,1.58-3.82,1.58s-2.8-.56-3.82-1.58c-1.02-1.02-1.58-2.38-1.58-3.82s.56-2.8,1.58-3.82c2.11-2.11,5.54-2.11,7.65,0,.2,.2,.3,.47,.3,.73Z"/><path class="cls-12" d="M34.56,9.05c0,2.42-.94,4.69-2.65,6.4-3.53,3.53-9.27,3.53-12.8,0-.41-.41-.41-1.06,0-1.47,.41-.41,1.06-.41,1.47,0,2.72,2.72,7.14,2.72,9.86,0,1.32-1.32,2.04-3.07,2.04-4.93s-.73-3.61-2.04-4.93c-1.32-1.32-3.07-2.04-4.93-2.04s-3.61,.73-4.93,2.04l-4.76,4.76c-.41,.41-1.06,.41-1.47,0-.41-.41-.41-1.06,0-1.47l4.76-4.76c3.53-3.53,9.27-3.53,12.8,0,1.71,1.71,2.65,3.98,2.65,6.4Z"/><path class="cls-14" d="M30.92,9.05c0,1.44-.56,2.8-1.58,3.82-1.02,1.02-2.38,1.58-3.82,1.58s-2.8-.56-3.82-1.58c-.41-.41-.41-1.06,0-1.47,.41-.41,1.06-.41,1.47,0,.63,.63,1.47,.98,2.36,.98s1.73-.35,2.36-.98c.63-.63,.98-1.47,.98-2.36s-.35-1.73-.98-2.36c-1.3-1.3-3.41-1.3-4.71,0-.41,.41-1.06,.41-1.47,0-.41-.41-.41-1.06,0-1.47,2.11-2.11,5.54-2.11,7.65,0,1.02,1.02,1.58,2.38,1.58,3.82Z"/><g class="cls-11"><path class="cls-5" d="M20.21,10.7c.19-.19,.29-.44,.3-.7-.81,.11-1.56,.49-2.14,1.07l-3.58,3.58c-3.12,3.12-8.21,3.21-11.36,.11C.26,11.64,.24,6.54,3.38,3.4,6.23,.55,10.7,.29,13.83,2.63c.56,.42,1.22,.68,1.92,.75,0-.26-.1-.52-.3-.72C13.74,.95,11.47,.01,9.05,.01S4.36,.95,2.65,2.66C.94,4.37,0,6.65,0,9.06s.94,4.69,2.65,6.4c3.53,3.53,9.27,3.53,12.8,0l4.76-4.76Z"/><path class="cls-4" d="M3.38,3.38C.24,6.53,.26,11.63,3.43,14.75c3.15,3.1,8.23,3.01,11.36-.11l3.58-3.58c.58-.58,1.33-.95,2.14-1.07v-.04c0-.27-.1-.53-.3-.73-.41-.41-1.06-.41-1.47,0l-4.76,4.76c-2.72,2.72-7.14,2.72-9.86,0-1.32-1.32-2.04-3.07-2.04-4.93s.73-3.61,2.04-4.93c1.32-1.32,3.07-2.04,4.93-2.04s3.61,.73,4.93,2.04c.41,.41,1.06,.41,1.47,0,.21-.21,.31-.48,.3-.75-.69-.06-1.36-.33-1.92-.75C10.7,.28,6.23,.53,3.38,3.38Z"/></g><g class="cls-11"><path class="cls-9" d="M5.75,6.18c-1.42,1.63-1.42,4.1,0,5.72,1.47,1.69,3.9,1.96,5.68,.8,.52-.34,1.13-.53,1.75-.57,0-.27-.1-.54-.3-.74-.41-.41-1.06-.41-1.47,0-.63,.63-1.47,.98-2.36,.98s-1.73-.35-2.36-.98c-.63-.63-.98-1.47-.98-2.36s.35-1.73,.98-2.36c1.3-1.3,3.41-1.3,4.71,0,.41,.41,1.06,.41,1.47,0,.2-.2,.3-.47,.3-.73h0c-.62-.05-1.22-.24-1.75-.58-1.78-1.16-4.21-.89-5.68,.8Z"/><path class="cls-7" d="M5.23,5.23c-1.02,1.02-1.58,2.38-1.58,3.82s.56,2.8,1.58,3.82c1.02,1.02,2.38,1.58,3.82,1.58s2.8-.56,3.82-1.58c.2-.2,.3-.46,.3-.73-.62,.04-1.23,.23-1.75,.57-1.78,1.16-4.21,.89-5.68-.8-1.42-1.63-1.42-4.1,0-5.72,1.47-1.69,3.9-1.96,5.68-.8,.52,.34,1.13,.53,1.75,.57,0-.26-.1-.52-.3-.72-2.11-2.11-5.54-2.11-7.65,0Z"/></g><g class="cls-11"><path class="cls-6" d="M31.18,14.71c3.14-3.14,3.13-8.25-.04-11.37-3.15-3.1-8.23-3.01-11.36,.11l-3.58,3.58c-.58,.58-1.33,.95-2.14,1.07-.01,.28,.09,.56,.3,.77,.41,.41,1.06,.41,1.47,0l4.76-4.76c1.32-1.32,3.07-2.04,4.93-2.04s3.61,.73,4.93,2.04c1.32,1.32,2.04,3.07,2.04,4.93s-.73,3.61-2.04,4.93c-2.72,2.72-7.14,2.72-9.86,0-.41-.41-1.06-.41-1.47,0-.21,.21-.31,.48-.3,.75,.69,.06,1.36,.33,1.92,.75,3.14,2.34,7.6,2.09,10.45-.76Z"/><path class="cls-3" d="M14.36,7.41c-.19,.19-.29,.44-.3,.69,.81-.11,1.56-.49,2.14-1.07l3.58-3.58c3.12-3.12,8.21-3.21,11.36-.11,3.17,3.13,3.19,8.23,.04,11.37-2.85,2.85-7.31,3.1-10.45,.76-.56-.42-1.22-.68-1.92-.75,0,.26,.1,.52,.3,.72,3.53,3.53,9.27,3.53,12.8,0,1.71-1.71,2.65-3.98,2.65-6.4s-.94-4.69-2.65-6.4c-3.53-3.53-9.27-3.53-12.8,0l-4.76,4.76Z"/></g><g class="cls-11"><path class="cls-2" d="M28.84,9.05c0,.89-.35,1.73-.98,2.36-.63,.63-1.47,.98-2.36,.98s-1.73-.35-2.36-.98c-.41-.41-1.06-.41-1.47,0-.2,.2-.31,.47-.3,.74,.62,.04,1.23,.23,1.75,.57,1.78,1.16,4.21,.89,5.68-.8,1.42-1.63,1.42-4.1,0-5.72-1.47-1.69-3.9-1.96-5.68-.8-.52,.34-1.13,.53-1.75,.57,0,.27,.1,.54,.3,.74,.41,.41,1.06,.41,1.47,0,1.3-1.3,3.41-1.3,4.71,0,.63,.63,.98,1.47,.98,2.36Z"/><path class="cls-8" d="M28.81,6.18c1.42,1.63,1.42,4.1,0,5.72-1.47,1.69-3.9,1.96-5.68,.8-.52-.34-1.13-.53-1.75-.57,0,.26,.1,.53,.3,.73,1.02,1.02,2.38,1.58,3.82,1.58s2.8-.56,3.82-1.58c1.02-1.02,1.58-2.38,1.58-3.82s-.56-2.8-1.58-3.82c-2.11-2.11-5.54-2.11-7.65,0-.2,.2-.3,.46-.3,.72,.62-.04,1.22-.23,1.75-.57,1.78-1.16,4.21-.89,5.68,.8Z"/></g></g></g></g></g></svg>