<?xml version="1.0" encoding="UTF-8"?>
<svg id="Layer_2" data-name="Layer 2" xmlns="http://www.w3.org/2000/svg" viewBox="0 0 130 35.45">
  <defs>
    <style>
      .cls-1 {
        fill: #191918;
      }
    </style>
  </defs>
  <g id="Layer_1-2" data-name="Layer 1">
    <g id="Layer_1-2" data-name="Layer 1-2">
      <g>
        <path class="cls-1" d="m12.97,3.31C15.09,1.16,17.98-.06,21,0c3.02-.06,5.88,1.16,7.96,3.31,2.15,2.09,3.37,4.98,3.31,7.96.06,3.02-1.16,5.91-3.31,8.03-2.09,2.12-4.98,3.31-7.96,3.27-3.02.06-5.91-1.12-8.03-3.27-2.18-2.09-3.37-5.01-3.31-8.03-.06-3.02,1.16-5.88,3.31-7.96Zm1.64,7.96c0,1.93.61,3.47,1.8,4.72,1.22,1.19,2.86,1.83,4.56,1.8,1.7.03,3.31-.61,4.49-1.8,1.25-1.25,1.86-2.79,1.86-4.72s-.61-3.47-1.86-4.66c-1.16-1.22-2.79-1.89-4.49-1.86-1.7-.03-3.37.64-4.56,1.86-1.19,1.19-1.8,2.76-1.8,4.66Z"/>
        <path class="cls-1" d="m47.33,22.73h-11.17c-2.44,0-3.82-1.25-3.82-3.11,0-.87.48-2.02,1.41-3.31l7.8-10.88h-8.64V.68h11.49c2.38,0,3.56,1,3.56,2.95,0,1-.35,1.93-1,2.7l-8.38,11.65h8.77v4.75h-.03Z"/>
        <path class="cls-1" d="m55.03,25.33c.16,3.47,2.09,5.65,5.55,5.65,3.66,0,5.55-2.38,5.52-6.16v-4.08l-.77.58c-.61.42-3.15,1.44-5.59,1.44-3.21,0-5.91-1.09-8.09-3.27-2.15-2.12-3.31-5.01-3.27-8.03-.03-6.2,4.98-11.27,11.17-11.3h.16c2.95-.03,5.81,1.06,7.96,3.05,2.25,2.02,3.37,4.82,3.37,8.38v13.2c0,3.27-1,5.84-2.99,7.77-1.96,1.93-4.46,2.89-7.51,2.89s-5.39-.93-7.35-2.73-2.99-4.24-3.15-7.42h4.98v.03Zm4.72-7.35c3.56,0,6.36-2.76,6.36-6.52s-2.7-6.52-6.36-6.52-6.36,2.79-6.36,6.52,2.79,6.52,6.36,6.52Z"/>
        <path class="cls-1" d="m90.03,22.73v-1.77l-.77.58c-.61.42-3.15,1.44-5.59,1.44-3.21,0-5.91-1.09-8.09-3.27-2.15-2.12-3.31-5.01-3.27-8.03-.03-6.2,4.98-11.27,11.17-11.3h.16c2.95-.03,5.81,1.06,7.96,3.05,2.22,2.02,3.37,4.82,3.37,8.38v10.88h-4.94v.03Zm-6.36-4.49c3.56,0,6.36-2.73,6.36-6.52s-2.7-6.52-6.39-6.52-6.36,2.79-6.36,6.52,2.79,6.52,6.36,6.52h.03Z"/>
        <path class="cls-1" d="m113.95,22.48v-1.77c-.26.19-.51.39-.77.58-.61.42-3.15,1.44-5.59,1.44-3.21,0-5.91-1.09-8.09-3.27-2.15-2.12-3.31-5.01-3.27-8.03-.03-6.2,4.98-11.27,11.17-11.3h.16c2.95-.03,5.81,1.06,7.96,3.05,2.25,2.02,3.37,4.82,3.37,8.38v10.88h-4.98l.03.03Zm-6.36-4.49c3.56,0,6.36-2.76,6.36-6.52s-2.7-6.52-6.36-6.52-6.36,2.79-6.36,6.52,2.79,6.52,6.36,6.52Z"/>
        <path class="cls-1" d="m125.34,22.7h-4.91v-13.13c0-6.36,3.56-8.89,8.38-8.89h1.19v4.75h-.93c-2.47,0-3.72,1.41-3.72,4.14v13.13Z"/>
        <path class="cls-1" d="m4.91,22.38H0v-13.13C0,2.86,3.56.32,8.38.32h1.19v4.78h-.93c-2.47,0-3.72,1.41-3.72,4.14,0,0,0,13.13,0,13.13Z"/>
      </g>
    </g>
  </g>
</svg>