<?xml version="1.0" encoding="UTF-8"?>
<svg id="Layer_2" data-name="Layer 2" xmlns="http://www.w3.org/2000/svg" viewBox="0 0 156.67 29.36">
  <defs>
    <style>
      .cls-1 {
        fill: #d22d27;
      }
    </style>
  </defs>
  <g id="Layer_1-2" data-name="Layer 1">
    <g id="Curved">
      <g>
        <g>
          <path class="cls-1" d="m4.34,28.44c-1.3-.56-2.33-1.34-3.09-2.35-.76-1-1.17-2.16-1.25-3.46h3.67c.1,1.07.61,1.94,1.5,2.62.9.68,2.08,1.02,3.54,1.02,1.35,0,2.42-.3,3.2-.9.78-.6,1.17-1.35,1.17-2.27s-.42-1.64-1.25-2.09c-.83-.46-2.12-.9-3.87-1.35-1.59-.42-2.89-.84-3.89-1.27-1-.43-1.86-1.07-2.58-1.92-.72-.85-1.08-1.96-1.08-3.34,0-1.09.33-2.1.98-3.01.65-.91,1.58-1.64,2.78-2.17,1.2-.53,2.57-.8,4.1-.8,2.37,0,4.29.6,5.75,1.8,1.46,1.2,2.24,2.84,2.35,4.93h-3.56c-.08-1.12-.53-2.02-1.35-2.7s-1.92-1.02-3.3-1.02c-1.28,0-2.29.27-3.05.82s-1.13,1.26-1.13,2.15c0,.7.23,1.28.68,1.74.46.46,1.03.82,1.72,1.09.69.27,1.65.58,2.87.92,1.54.42,2.79.83,3.75,1.23s1.79,1.01,2.48,1.82c.69.81,1.05,1.86,1.08,3.17,0,1.17-.33,2.23-.98,3.17-.65.94-1.57,1.67-2.76,2.21-1.19.53-2.55.8-4.09.8-1.64,0-3.11-.28-4.42-.84h0Z"/>
          <path class="cls-1" d="m24.35,10.44v12.63c0,1.04.22,1.78.66,2.21.44.43,1.21.65,2.31.65h2.62v3.01h-3.2c-1.98,0-3.47-.46-4.46-1.37-.99-.91-1.49-2.41-1.49-4.5v-12.63h-2.78v-2.93h2.78V2.11h3.56v5.39h5.59v2.93h-5.59,0Z"/>
          <path class="cls-1" d="m56.37,12.37c.89-1.65,2.12-2.94,3.69-3.85,1.58-.91,3.38-1.37,5.41-1.37,2.63,0,4.8.64,6.51,1.92,1.71,1.28,2.83,3.05,3.38,5.32h-3.83c-.36-1.3-1.08-2.33-2.13-3.09-1.06-.76-2.36-1.13-3.93-1.13-2.03,0-3.67.7-4.93,2.09-1.25,1.39-1.88,3.37-1.88,5.92s.63,4.57,1.88,5.98,2.89,2.11,4.93,2.11c1.56,0,2.87-.36,3.91-1.09,1.04-.73,1.76-1.77,2.15-3.13h3.83c-.57,2.19-1.72,3.94-3.44,5.26-1.72,1.32-3.87,1.97-6.45,1.97-2.03,0-3.84-.46-5.41-1.37-1.58-.91-2.81-2.2-3.69-3.87-.89-1.67-1.33-3.62-1.33-5.86s.44-4.15,1.33-5.8h0Z"/>
          <path class="cls-1" d="m89.05,28.93l-8.4-9.46v9.46h-3.56V0h3.56v17l8.25-9.5h4.96l-10.09,10.67,10.12,10.75h-4.85,0Z"/>
          <path class="cls-1" d="m98.58,27.89c-1.56-.87-2.8-2.12-3.69-3.75-.9-1.63-1.35-3.55-1.35-5.77s.45-4.14,1.35-5.77c.9-1.63,2.13-2.88,3.69-3.75,1.56-.87,3.32-1.31,5.28-1.31s3.71.44,5.28,1.31c1.56.87,2.79,2.12,3.67,3.75.89,1.63,1.33,3.55,1.33,5.77s-.44,4.14-1.33,5.77c-.89,1.63-2.11,2.88-3.67,3.75-1.56.87-3.32,1.31-5.28,1.31s-3.71-.44-5.28-1.31Zm9.97-.51c1.43-.74,2.59-1.87,3.48-3.38.89-1.51,1.33-3.39,1.33-5.63s-.44-4.12-1.33-5.63-2.05-2.64-3.48-3.38-3-1.11-4.69-1.11-3.26.37-4.71,1.11-2.61,1.88-3.5,3.4c-.89,1.52-1.33,3.4-1.33,5.61s.44,4.09,1.33,5.61c.89,1.52,2.05,2.66,3.5,3.4,1.45.74,3.02,1.11,4.71,1.11s3.26-.37,4.69-1.11h0Z"/>
          <path class="cls-1" d="m131.97,9.65c1.59,1.54,2.38,3.86,2.38,6.96v12.31h-.74v-12.39c0-2.76-.69-4.87-2.07-6.31-1.38-1.45-3.27-2.17-5.67-2.17s-4.51.81-6.02,2.44c-1.51,1.63-2.27,4.03-2.27,7.21v11.22h-.78V7.82h.78v5.55c.49-1.95,1.49-3.45,2.97-4.48s3.26-1.54,5.32-1.54c2.48,0,4.51.77,6.1,2.31h0Z"/>
          <path class="cls-1" d="m152.96,26.7c1.62-1.2,2.59-2.84,2.93-4.93h.78c-.37,2.21-1.4,4.01-3.11,5.38-1.71,1.37-3.9,2.05-6.59,2.05-1.95,0-3.7-.43-5.24-1.29s-2.74-2.11-3.62-3.75c-.87-1.64-1.31-3.57-1.31-5.79s.44-4.14,1.31-5.79c.87-1.64,2.08-2.89,3.62-3.75s3.28-1.29,5.24-1.29c2.06,0,3.82.44,5.28,1.31,1.46.87,2.56,2,3.3,3.38.74,1.38,1.11,2.84,1.11,4.38,0,.94-.01,1.64-.04,2.11h-19.04c.03,2.16.48,3.97,1.35,5.43.87,1.46,2.01,2.55,3.42,3.26,1.41.72,2.94,1.08,4.61,1.08,2.37,0,4.36-.6,5.98-1.8h0Zm-10.59-17.38c-1.41.72-2.55,1.8-3.42,3.26-.87,1.46-1.32,3.27-1.35,5.43h18.37c.13-2.16-.21-3.97-1.04-5.43-.82-1.46-1.94-2.55-3.36-3.26-1.42-.72-2.95-1.08-4.59-1.08s-3.2.36-4.61,1.08h0Z"/>
        </g>
        <g>
          <path class="cls-1" d="m31.66,20.44c.35,1.68,1.06,3.19,2.1,4.55.28.36.58.72.91,1.03.01.02.03.03.04.05,1.06,1.05,2.28,1.87,3.66,2.44,1.93.8,3.94,1.01,6,.71,1.34-.2,2.6-.64,3.78-1.31.52-.29,1.01-.62,1.48-1,.01,0,.03-.01.04-.02,2.35-1.93,3.74-4.4,4.12-7.42.13-1.02.11-2.03-.05-3.04-.19-1.24-.59-2.42-1.18-3.52-.5-.93-1.12-1.78-1.85-2.54-.05-.05-.07-.06-.13,0-.35.36-.71.72-1.07,1.07-.05.05-.06.08,0,.14.78.82,1.4,1.75,1.86,2.78.15.34.24.68.16,1.06-.11.51-.4.79-.91.86-.69.1-1.35-.04-1.99-.29-.81-.32-1.5-.8-2.11-1.41-.05-.05-.08-.05-.13,0-.37.37-.73.74-1.11,1.11-.05.05-.06.09-.02.16.53.89.59,1.82.2,2.78-.14.33-.35.61-.58.88-.05.05-.1.09-.15.14-.8.7-1.72.95-2.75.69-1.96-.48-2.88-2.67-1.88-4.43.04-.07.04-.11-.02-.17-.39-.38-.77-.77-1.16-1.15-.06-.06-.09-.06-.15,0-.33.33-.68.61-1.07.87-.39.26-.81.45-1.24.62-.04.01-.09.02-.13.03-.5.16-1.01.23-1.54.19-.39-.03-.72-.16-.9-.53-.2-.39-.23-.79-.06-1.19.46-1.12,1.1-2.11,1.93-2.98.05-.06.07-.09,0-.15-.36-.35-.71-.7-1.06-1.06-.05-.05-.08-.05-.13,0-.91.95-1.63,2.01-2.17,3.21-.55,1.24-.87,2.53-.95,3.88-.06,1,0,2,.21,2.98h0Zm2.63.96c.22-.06.44-.03.66-.05.7.02,1.4.08,2.1.14.61.05,1.22.11,1.83.16.89.07,1.79.11,2.69.13,1.21.03,2.43,0,3.64-.05.21-.01.42-.03.63-.04.36-.02.73-.04,1.09-.07.61-.05,1.22-.11,1.83-.16.65-.05,1.3-.11,1.95-.09.13,0,.25.03.37.06.13.04.18.12.19.25.02.26-.04.51-.13.75-.18.46-.46.87-.75,1.27-.52.73-1.13,1.36-1.83,1.92-.01.01-.03.03-.04.04-.36.26-.73.52-1.12.75-1.12.64-2.32,1.06-3.6,1.2-2.49.29-4.76-.3-6.8-1.77-.87-.63-1.61-1.4-2.22-2.28-.03-.04-.06-.08-.09-.12-.14-.24-.29-.47-.42-.71-.16-.3-.27-.62-.27-.96,0-.22.06-.29.27-.35h0Z"/>
          <path class="cls-1" d="m42.72,6.94c.51-.02,1.08.03,1.65.11.57.08,1.12.21,1.67.37.64.19,1.26.44,1.86.73.68.34,1.33.75,1.93,1.22.06.04.06.07,0,.12-.33.33-.66.66-.99.99-.04.04-.08.05-.13,0-.84-.64-1.76-1.12-2.76-1.46-.58-.2-1.17-.34-1.77-.44-.34-.05-.68-.08-1.02-.1-.41-.02-.82-.02-1.22,0-.48.03-.96.1-1.43.2-.85.18-1.66.47-2.44.86-.52.26-1.01.56-1.47.92-.08.06-.13.07-.21-.01-.3-.31-.61-.61-.91-.91-.1-.1-.1-.11,0-.19.8-.61,1.66-1.12,2.58-1.52.62-.26,1.26-.47,1.91-.62.51-.12,1.03-.2,1.56-.26.37-.04.73-.04,1.16-.04h0Z"/>
          <path class="cls-1" d="m42.65,9.8c.97,0,1.88.15,2.76.43.75.24,1.45.59,2.11,1.02.09.06.17.13.26.18.07.04.06.07,0,.12-.28.28-.55.56-.84.83-.07.07-.11.18-.21.19-.09,0-.16-.09-.24-.14-.54-.32-1.1-.59-1.7-.77-.81-.25-1.64-.36-2.49-.31-1.24.06-2.4.41-3.46,1.08-.08.05-.16.1-.24.15-.04.03-.06.02-.09-.01-.34-.34-.68-.68-1.02-1.02-.06-.06,0-.08.03-.1.54-.39,1.11-.71,1.72-.97.62-.26,1.25-.45,1.91-.56.51-.09,1.02-.13,1.49-.12h0Z"/>
          <path class="cls-1" d="m42.71,15.39c1.05-.02,2.01.85,2,2,0,1.15-.9,2.02-2.03,2.02-1.11,0-2.01-.92-1.99-2.05.02-1.12.95-1.99,2.02-1.97h0Z"/>
          <path class="cls-1" d="m42.7,12.46c.56,0,1.16.09,1.74.26.5.15.98.36,1.42.63.07.04.08.06.02.12-.33.33-.66.66-.99.99-.06.06-.11.06-.17.03-.39-.2-.8-.34-1.24-.41-.63-.11-1.27-.1-1.89.05-.34.08-.67.2-.98.36-.07.04-.13.03-.19-.03-.33-.33-.66-.66-.99-.99-.06-.06-.05-.07.01-.11.68-.42,1.42-.69,2.21-.83.33-.05.66-.08,1.04-.09h0Z"/>
        </g>
      </g>
    </g>
  </g>
</svg>