<?xml version="1.0" encoding="UTF-8"?>
<svg id="Layer_2" data-name="Layer 2" xmlns="http://www.w3.org/2000/svg" viewBox="0 0 210.33 42">
  <defs>
    <style>
      .cls-1 {
        fill: #020202;
      }

      .cls-2 {
        fill: #f02f39;
      }
    </style>
  </defs>
  <g id="Layer_1-2" data-name="Layer 1">
    <g id="Group_1" data-name="Group 1">
      <path id="Catapultyourcareer" class="cls-1" d="m68.25,36.47c-.02-.15-.08-.29-.15-.42s-.18-.24-.29-.33c-.12-.1-.26-.17-.4-.22-.15-.05-.31-.08-.47-.08-.26,0-.53.05-.76.17-.2.11-.38.27-.5.46-.13.2-.23.43-.29.66-.06.26-.09.51-.09.77s.03.49.09.73c.05.23.15.45.29.64.13.19.3.35.5.46.23.12.49.18.76.17.36.02.7-.12.95-.37.24-.27.39-.62.42-.97h1.28c-.03.36-.12.7-.26,1.02-.13.29-.32.56-.56.77s-.51.38-.81.49c-.32.12-.67.17-1.02.17-.43,0-.85-.08-1.24-.24-.36-.15-.67-.38-.93-.66-.26-.29-.46-.63-.58-.99-.14-.39-.21-.81-.2-1.23,0-.43.06-.85.2-1.25.12-.37.32-.71.58-1.01.26-.29.57-.52.93-.67.7-.29,1.47-.32,2.18-.1.29.09.56.23.8.42.23.19.43.42.58.68.15.29.26.6.29.93h-1.28Zm2.06.98c0-.25.08-.49.21-.7.12-.19.29-.33.47-.45.2-.12.42-.19.64-.24.24-.05.48-.07.72-.07.22,0,.45.02.66.05s.43.09.62.18c.18.09.34.22.46.38.12.19.19.41.18.63v2.27c0,.19,0,.38.03.56,0,.14.05.28.12.4h-1.21c-.02-.07-.04-.14-.05-.21s-.02-.14-.03-.22c-.19.19-.42.33-.67.41s-.53.12-.8.12c-.19,0-.39-.02-.58-.08-.17-.05-.33-.12-.47-.24-.14-.11-.25-.25-.32-.4-.08-.19-.12-.38-.12-.58,0-.21.04-.43.13-.61.08-.15.19-.29.34-.39s.3-.17.47-.22c.18-.05.36-.09.53-.12s.36-.05.53-.07c.15-.02.31-.04.46-.08.12-.02.22-.08.32-.15.08-.07.12-.18.11-.29,0-.11-.02-.22-.06-.31-.04-.07-.1-.13-.17-.18-.08-.05-.15-.07-.25-.09-.1-.02-.2-.02-.3-.02-.2,0-.39.05-.56.15-.15.12-.23.31-.24.5h-1.2l.02.03Zm2.77.89c-.05.05-.12.09-.19.11s-.16.05-.25.06-.18.03-.27.04-.19.02-.29.04-.18.04-.26.07c-.09.02-.15.06-.22.12-.06.05-.12.11-.15.18-.04.09-.06.19-.06.28s.02.19.06.27c.04.07.09.13.16.17.07.05.15.08.24.09.09.02.19.02.28.02.19,0,.38-.03.55-.12.12-.07.22-.16.29-.29.06-.1.1-.22.12-.33.02-.09.02-.18.02-.27v-.45h-.02Zm3.64-2.22h.87v.8h-.87v2.16c-.06.22.05.44.27.5.08.02.16.02.24,0,.07,0,.13,0,.19,0,.06,0,.12-.02.18-.02v.93c-.11.02-.22.03-.34.03-.12,0-.25,0-.36,0-.18,0-.36-.02-.53-.04-.15-.02-.3-.07-.44-.15-.12-.07-.23-.18-.3-.31-.08-.16-.12-.35-.11-.53v-2.57h-.73v-.8h.73v-1.31h1.2v1.31h0Zm1.4,1.35c0-.25.08-.49.21-.7.12-.19.29-.33.47-.45.2-.12.42-.19.64-.24.24-.05.48-.07.72-.07.22,0,.45.02.66.05s.43.09.62.18c.18.09.34.22.46.38.12.19.19.41.18.63v2.27c0,.19,0,.38.03.56,0,.14.05.28.12.4h-1.21c-.02-.07-.04-.14-.05-.21s-.02-.15-.03-.22c-.19.19-.42.33-.67.41s-.53.12-.8.12c-.19,0-.39-.02-.58-.08-.17-.05-.33-.12-.47-.24-.14-.11-.25-.25-.32-.4-.08-.19-.12-.38-.12-.58,0-.21.04-.43.13-.61.08-.15.19-.29.34-.39s.3-.17.47-.22c.18-.05.36-.09.53-.12s.36-.05.53-.07c.15-.02.31-.04.46-.08.12-.02.22-.08.32-.15.08-.07.12-.18.11-.29,0-.11-.02-.22-.06-.31-.04-.07-.1-.13-.17-.18-.08-.05-.15-.07-.25-.09-.1-.02-.2-.02-.3-.02-.2,0-.39.05-.56.15-.15.12-.23.31-.24.5h-1.2l.02.03Zm2.77.89c-.05.05-.12.09-.19.11s-.16.05-.25.06-.18.03-.27.04c-.09,0-.19.02-.29.04s-.18.04-.26.07c-.09.02-.15.06-.22.12-.06.05-.12.11-.15.18-.04.09-.06.19-.06.28s.02.19.06.27c.04.07.09.13.16.17.07.05.15.08.24.09.09.02.19.02.28.02.19,0,.38-.03.55-.12.12-.07.22-.16.29-.29.06-.1.1-.22.12-.33.02-.09.02-.18.02-.27v-.45h-.02Zm4.32,1.36c.17,0,.34-.04.49-.12.13-.08.24-.19.32-.31.09-.14.15-.29.17-.44.03-.17.05-.34.05-.52s-.02-.35-.05-.52c-.03-.16-.09-.31-.18-.45-.09-.13-.19-.24-.32-.32-.15-.09-.32-.13-.49-.12-.17,0-.34.04-.49.12-.13.08-.24.19-.32.32-.09.14-.14.29-.17.45-.03.17-.05.35-.05.53s.02.35.05.52c.03.15.09.31.18.44.18.28.49.44.81.43h0Zm-2.2-3.58h1.14v.56h.02c.13-.22.32-.4.56-.52.23-.11.49-.16.74-.16.31,0,.61.05.88.19.24.12.46.3.62.52.17.22.29.48.36.75.08.29.12.59.12.89s-.04.57-.12.84c-.07.26-.19.5-.36.72-.16.21-.36.38-.6.49-.26.13-.55.19-.83.19-.26,0-.51-.05-.74-.16-.22-.11-.42-.28-.56-.49h-.02v2.06h-1.2v-5.88h0Zm9.24,4.36h-1.14v-.6h-.02c-.14.24-.34.43-.59.55-.23.11-.49.17-.74.17-.27,0-.53-.03-.79-.12-.19-.08-.36-.2-.49-.36-.12-.17-.21-.36-.25-.56-.05-.24-.08-.49-.07-.73v-2.68h1.2v2.46c-.02.28.04.56.17.8.14.19.36.29.6.26.27.02.53-.09.71-.29.17-.29.25-.63.22-.96v-2.29h1.2v4.36h0Zm.94-6.01h1.2v6.01h-1.2v-6.01Zm3.66,1.66h.87v.8h-.87v2.16c-.06.22.05.44.27.5.08.02.16.02.24,0,.07,0,.13,0,.19,0,.06,0,.12-.02.18-.02v.93c-.11.02-.22.03-.34.03-.12,0-.25,0-.36,0-.18,0-.36-.02-.53-.04-.15-.02-.3-.07-.44-.15-.12-.07-.23-.18-.3-.31-.08-.16-.12-.35-.11-.53v-2.57h-.73v-.8h.73v-1.31h1.2v1.31h0Zm5.95,4.9c-.09.3-.29.57-.54.76-.29.17-.63.25-.96.22-.12,0-.25,0-.36-.02-.12,0-.24-.02-.36-.03v-.99l.35.03c.12,0,.24.02.36,0,.14,0,.27-.08.35-.19.08-.1.12-.22.12-.36,0-.09-.02-.19-.05-.27l-1.52-4.09h1.28l.99,2.98h.02l.95-2.98h1.24l-1.82,4.9v.02Zm3.28-2.71c0,.17.02.34.05.51.03.15.09.31.17.45.08.13.19.24.32.32.15.09.33.12.5.12.18,0,.36-.04.51-.12.13-.08.25-.19.32-.32.09-.14.14-.29.17-.45.03-.17.05-.34.05-.51s-.02-.35-.05-.52c-.03-.15-.09-.31-.17-.45-.09-.13-.19-.24-.32-.32-.15-.09-.33-.13-.51-.12-.34-.02-.66.15-.83.44-.09.14-.15.29-.17.45-.03.17-.05.34-.05.51h0Zm-1.2,0c0-.32.05-.64.16-.95.19-.55.62-.98,1.16-1.19.29-.12.61-.17.93-.16.32,0,.63.05.93.16.54.21.97.64,1.17,1.19.11.3.16.63.16.95s-.05.64-.16.94c-.1.27-.26.52-.46.72-.2.2-.44.36-.71.46-.29.11-.61.16-.93.16s-.63-.05-.93-.16c-.26-.1-.51-.26-.71-.46-.2-.21-.36-.45-.46-.72-.11-.3-.16-.63-.16-.94h0Zm9.37,2.17h-1.14v-.6h-.02c-.14.24-.34.43-.59.55-.23.11-.49.17-.74.17-.27,0-.53-.03-.79-.12-.19-.08-.36-.2-.49-.36-.12-.17-.21-.36-.25-.56-.05-.24-.08-.49-.07-.73v-2.68h1.2v2.46c-.02.28.04.56.17.8.14.19.36.29.6.26.27.02.53-.09.71-.29.17-.29.25-.63.22-.96v-2.29h1.19v4.36h-.02Zm.91-4.36h1.14v.81h.02c.05-.14.13-.26.22-.38s.21-.22.33-.29c.12-.08.26-.15.39-.19.14-.05.29-.07.44-.07.09,0,.18.02.26.04v1.11c-.05,0-.12-.02-.2-.03-.08,0-.15-.02-.22-.02-.19,0-.38.03-.56.11-.15.07-.27.17-.37.3-.09.13-.16.29-.2.44-.04.18-.06.36-.06.55v1.96h-1.2v-4.36h0Zm8.59,1.54c-.02-.44-.41-.78-.85-.75h-.04c-.17,0-.34.04-.48.13-.13.09-.24.2-.32.34-.09.14-.14.29-.17.46-.03.16-.05.32-.05.49,0,.16.02.32.05.48.03.15.09.3.16.44.08.13.18.24.31.32.14.09.31.13.47.12.25.02.49-.07.66-.24.16-.18.26-.4.29-.64h1.15c-.05.51-.29.99-.67,1.32-.41.32-.91.48-1.42.46-.31,0-.61-.05-.9-.16-.26-.1-.5-.26-.7-.46s-.35-.44-.45-.7c-.11-.29-.16-.59-.16-.9s.05-.63.15-.94c.09-.28.24-.53.43-.75.19-.22.43-.38.7-.49.3-.12.62-.19.94-.18.26,0,.5.03.74.1.23.06.45.17.64.31.4.29.65.75.66,1.24h-1.18,0Zm1.82-.21c0-.25.08-.49.21-.7.12-.19.29-.33.47-.45.2-.12.42-.19.65-.24.24-.05.48-.07.72-.07.22,0,.45.02.66.05s.43.09.62.18c.18.09.34.22.46.38.12.19.19.41.18.63v2.27c0,.19,0,.38.03.56,0,.14.05.28.12.4h-1.21c-.02-.07-.04-.14-.05-.21s-.02-.14-.03-.22c-.19.19-.42.33-.67.41s-.53.12-.79.12c-.19,0-.39-.02-.58-.08-.17-.05-.33-.12-.47-.24-.14-.11-.25-.25-.32-.4-.08-.19-.12-.38-.12-.58,0-.21.04-.43.13-.61.08-.15.19-.29.34-.39s.3-.17.47-.22c.18-.05.36-.09.53-.12s.36-.05.53-.07c.15-.02.31-.04.46-.08.12-.02.22-.08.32-.15.08-.07.12-.18.11-.29,0-.11-.02-.22-.06-.31-.04-.07-.1-.13-.17-.18-.08-.05-.15-.07-.25-.09-.1-.02-.2-.02-.3-.02-.2,0-.39.05-.56.15-.15.12-.23.31-.23.5h-1.21v.03Zm2.78.89c-.05.05-.12.09-.19.11-.08.02-.16.05-.25.06s-.18.03-.27.04c-.09,0-.19.02-.29.04s-.18.04-.26.07c-.09.02-.16.06-.23.12-.06.05-.12.11-.15.18-.05.09-.06.19-.06.28s.02.19.06.27c.04.07.09.13.16.17.07.05.15.08.24.09.09.02.19.02.28.02.19,0,.38-.03.55-.12.12-.07.22-.16.29-.29.06-.1.1-.22.12-.33.02-.09.02-.18.02-.27v-.45h-.02Zm2.13-2.22h1.14v.81h.02c.12-.27.31-.51.56-.67.12-.08.26-.15.39-.19.14-.05.29-.07.44-.07.09,0,.18.02.26.04v1.11c-.05,0-.12-.02-.2-.03-.08,0-.15-.02-.22-.02-.19,0-.38.03-.56.11-.15.07-.27.17-.36.3s-.16.29-.2.44c-.04.18-.06.36-.06.55v1.96h-1.2v-4.36h0Zm6.21,1.72c-.03-.26-.14-.49-.3-.69-.17-.17-.41-.26-.65-.24-.16,0-.32.03-.48.09-.12.05-.22.14-.3.24-.07.09-.12.19-.16.3-.03.09-.05.19-.05.29h1.95Zm-1.95.77c-.02.31.09.61.29.84.4.32.97.35,1.4.08.15-.09.26-.22.32-.39h1.05c-.12.46-.39.85-.77,1.12-.38.23-.82.35-1.27.34-.32,0-.63-.05-.93-.16-.26-.1-.5-.26-.7-.46-.19-.21-.35-.46-.44-.73-.11-.29-.16-.61-.15-.93,0-.31.05-.62.16-.91.2-.55.62-.99,1.16-1.21.29-.12.6-.18.9-.18.33,0,.66.07.97.22.27.14.5.33.68.58.18.25.31.53.39.83.08.32.11.64.09.97h-3.15Zm6.79-.75c-.03-.26-.14-.49-.3-.69-.17-.17-.41-.26-.65-.24-.16,0-.32.03-.48.09-.12.05-.22.14-.3.24-.07.09-.12.19-.16.3-.03.09-.05.19-.05.29h1.95Zm-1.95.77c-.02.31.09.61.29.84.4.32.97.35,1.4.08.15-.09.26-.22.32-.39h1.05c-.12.46-.39.85-.77,1.12-.38.23-.82.35-1.27.34-.32,0-.63-.05-.93-.16-.26-.1-.5-.26-.7-.46-.19-.21-.35-.46-.44-.73-.11-.29-.16-.61-.15-.93,0-.31.05-.62.16-.91.2-.55.62-.99,1.16-1.21.29-.12.6-.18.9-.18.33,0,.66.07.97.22.27.14.5.33.68.58.18.25.31.53.39.83.08.32.11.64.09.97h-3.15Zm3.85-2.47h1.14v.81h.02c.12-.27.31-.51.56-.67.12-.08.26-.15.39-.19.14-.05.29-.07.44-.07.09,0,.18.02.26.04v1.11c-.05,0-.12-.02-.2-.03-.08,0-.15-.02-.22-.02-.19,0-.38.03-.56.11-.15.07-.27.17-.36.3s-.16.29-.2.44c-.04.18-.06.36-.06.55v1.96h-1.2v-4.36h0Z"/>
      <path id="Line" class="cls-1" d="m0,37.94h60.7v-.84H0v.84Z"/>
      <path id="Line-Copy" class="cls-1" d="m149.63,37.94h60.7v-.84h-60.7v.84h0Z"/>
      <path id="Combined-Shape" class="cls-1" d="m74.15,9.35c2.61,0,4,1.11,4.79,1.11.97,0,.56-.78,1.06-.78.19,0,.31.09.33.5l.5,5.26c.05.53.09.78.09.92,0,.19-.09.28-.22.28-.28,0-.31-.59-.75-1.69-1.22-3.08-2.73-4.92-5.81-4.92-1.98,0-3.53.86-3.53,2.98,0,4.56,11.3,2.03,11.3,9.57,0,3.7-3.12,6.54-7.31,6.54-2.75,0-4.06-1.28-5.15-1.28s-.92.94-1.39.94c-.14,0-.22-.05-.22-.25v-7.73c0-.33.11-.42.28-.42.28,0,.28.42.39,1.01.66,3.53,2.06,7.07,6.12,7.07,2.84,0,4.45-1.45,4.45-3.59,0-5.62-11.13-2.87-11.13-9.76,0-3.29,2.79-5.74,6.24-5.74l-.02-.02Zm-57.95,0c.14,0,.22.11.31.53l.91,5.09c.07.33.12.66.14,1.01.02.13-.07.26-.2.28h-.05c-.64,0-.92-4.28-6.42-5.78v15.4c0,1.78.86,2.17,2.23,2.17.33,0,.5.09.5.36,0,.22-.14.31-.45.31-1.58,0-3.01-.05-4.31-.05s-2.73.05-4.31.05c-.31,0-.45-.09-.45-.31,0-.28.17-.36.5-.36,1.36,0,2.23-.39,2.23-2.17v-15.41C1.31,11.97,1.04,16.26.39,16.26c-.13,0-.25-.1-.26-.23v-.05c.02-.34.07-.67.14-1.01l.91-5.09c.09-.42.17-.53.31-.53.15.02.29.09.39.19.21.16.46.25.73.25h12.46c.26,0,.52-.09.73-.25.1-.11.24-.18.39-.19h0Zm9.17.38c.45,0,.56.14.56.36,0,.78-2.39-.31-2.39,1.92v14.41c0,2.23,2.39,1.14,2.39,1.92,0,.22-.11.36-.56.36-1.41,0-2.75-.05-3.87-.05s-2.45.05-3.87.05c-.45,0-.56-.14-.56-.36,0-.78,2.39.31,2.39-1.92v-14.4c0-2.23-2.39-1.14-2.39-1.92,0-.22.11-.36.56-.36,1.41,0,2.75.05,3.87.05s2.45-.05,3.87-.05h0Zm24.11,0c.45,0,.56.14.56.36,0,.78-2.4-.31-2.4,1.92v14.41c0,2.23,2.4,1.14,2.4,1.92,0,.22-.11.36-.56.36-1.41,0-2.75-.05-3.87-.05s-2.45.05-3.87.05c-.45,0-.56-.14-.56-.36,0-.78,2.4.31,2.4-1.92v-14.47h-.05l-6.68,16.61c-.05.05-.12.09-.19.09-.09,0-.16-.03-.22-.09l-6.59-15.89h-.05v11.35c0,2.33.73,3.25,1.48,3.64,1.01.53,1.53.19,1.53.66,0,.22-.14.36-.61.36-.7,0-1.62-.05-2.73-.05s-2.03.05-2.73.05c-.47,0-.61-.14-.61-.36,0-.47.53-.14,1.53-.66.75-.39,1.48-1.31,1.48-3.64v-12.27c-.45-.86-1.35-1.38-2.31-1.36-.39-.03-.5-.14-.53-.33,0-.19.14-.33.32-.33h.04c1.03,0,2.06.05,3.08.05h3.12l5.57,13.24,5.4-13.24h1.81c1.11,0,2.44-.05,3.87-.05h0Zm15.42,0l1.39,5.31c.08.24.13.48.17.73,0,.14-.09.22-.28.22-.25,0-.22-.47-1.31-2.28-1.31-2.16-3.12-3.31-6.46-3.31h-1.5v8.01h.7c1.91.02,3.46-1.52,3.48-3.43v-.02c.03-.56.11-.7.39-.7.17,0,.28.14.28.39v8.51c0,.25-.11.39-.28.39-.28,0-.36-.14-.39-.7-.11-2.47-1.53-3.78-3.48-3.78h-.7v7.01c0,1.28.5,1.95,2.28,1.95,4.34,0,6.68-3.08,7.54-5.84.17-.53.19-.78.45-.78.15,0,.28.11.28.26v.05c-.02.27-.05.54-.11.8l-1.22,6.18c-3.67-.03-7.38-.05-11.24-.05-1.11,0-2.45.05-3.87.05-.45,0-.56-.14-.56-.36,0-.78,2.4.31,2.4-1.92v-14.4c0-2.23-2.4-1.14-2.4-1.92,0-.22.11-.36.56-.36,1.41,0,2.75.05,3.87.05,3.45,0,6.73-.03,10.01-.05h0Z"/>
      <path id="Combined-Shape-2" class="cls-2" d="m118.62,9.84c6.59,0,8.57,2.01,9.63,5.83h-6.99c-.13-.55-.46-1.03-.9-1.36-.63-.4-1.36-.6-2.1-.58-.64-.05-1.28.1-1.82.44-.36.25-.56.65-.57,1.07,0,.47.29.9.73,1.07,1.01.36,2.07.58,3.15.65,1.86.15,3.7.54,5.47,1.16,1.11.43,2.06,1.16,2.74,2.12.63.88.96,1.94.95,3.02-.02,1.15-.36,2.28-1.01,3.24-.78,1.14-1.89,2.01-3.17,2.5-1.89.7-3.89,1.01-5.89.94-7.5,0-9.96-4.62-10.38-6.46h7.31c.22.74.66,1.39,1.27,1.86.65.4,1.41.6,2.17.56.82.05,1.62-.17,2.3-.63.39-.26.63-.7.63-1.18,0-.54-.33-1.03-.83-1.23-1.03-.36-2.09-.62-3.17-.76-1.81-.26-3.6-.68-5.33-1.24-1.01-.39-1.88-1.06-2.52-1.93-.68-.89-1.04-1.98-1.02-3.1-.03-1.19.36-2.35,1.11-3.28.8-.96,1.86-1.67,3.05-2.06,1.69-.51,3.44-.74,5.2-.68h0Zm21.92,0c8.77,0,9.99,5.37,10.65,7.53h-6.93c-.16-.74-.59-1.4-1.18-1.86-.68-.45-1.49-.66-2.31-.63-1.14-.04-2.23.45-2.96,1.31-.83,1.14-1.24,2.56-1.13,3.97-.09,1.3.31,2.59,1.12,3.6.73.81,1.77,1.26,2.86,1.23.87.03,1.73-.23,2.44-.74.72-.59,1.24-1.38,1.48-2.28l7.01-.05c-.39,1.46-1.02,3.57-1.9,4.64s-3.13,3.38-8.6,3.38c-1.72.04-3.43-.15-5.1-.57-1.29-.35-2.49-.97-3.5-1.85-.97-.83-1.75-1.86-2.3-3-.61-1.44-.9-3-.83-4.56-.06-1.71.29-3.4,1.01-4.95.51-.98,1.2-1.86,2.03-2.6.78-.72,1.67-1.29,2.64-1.71,1.77-.65,3.65-.95,5.53-.89h0Zm-43.7,0c1.79-.03,3.56.09,5.33.37,1.24.2,2.4.73,3.35,1.55.69.63,1.2,1.42,1.48,2.31.35.91.53,1.88.54,2.85v8.5c-.02.71.04,1.43.17,2.13.18.68.43,1.34.75,1.96h-7.72v-2.36c-.83.83-1.8,1.52-2.88,1.99-1.45.56-2.99.83-4.55.8-2.3,0-4.04-.53-5.23-1.59-1.15-.98-1.8-2.42-1.78-3.93-.05-1.32.41-2.61,1.28-3.6.86-.94,2.44-1.64,4.75-2.1,2.77-.56,4.56-.94,5.38-1.17.88-.25,1.75-.54,2.61-.88.07-.68-.13-1.37-.56-1.9-.56-.43-1.27-.61-1.97-.54-.94-.06-1.88.14-2.71.58-.56.43-.96,1.02-1.14,1.7h-7.05c0-3.91,4.33-6.66,9.94-6.66h0Zm65.66,0c2.24-.11,4.48.32,6.52,1.25,1.56.8,2.83,2.06,3.64,3.62.9,1.93,1.34,4.04,1.25,6.18v.83h-14.78c.05.96.38,1.88.96,2.64.69.82,1.72,1.28,2.79,1.25.73,0,1.44-.19,2.07-.54.5-.32.94-.73,1.28-1.21l7.26-.17c-1.11,1.93-3.26,6.25-10.78,6.25-2.06.09-4.11-.28-6.01-1.07-1.52-.77-2.78-1.96-3.63-3.42-.99-1.67-1.48-3.58-1.44-5.51-.11-2.73.94-5.38,2.89-7.3,1.93-1.86,4.58-2.79,7.98-2.79h0Zm25.79,0c1.79-.1,3.53.56,4.79,1.82,1.15,1.21,1.73,3.08,1.73,5.62v12.22h-7.41v-10.58c.09-.9-.15-1.82-.67-2.57-.49-.52-1.18-.8-1.89-.75-.84-.02-1.65.36-2.17,1.01-.56.67-.83,1.89-.83,3.64v9.24h-7.37V10.27h6.86v3.13c.84-1.12,1.9-2.05,3.12-2.74,1.2-.58,2.51-.87,3.84-.82h0Zm16.92-5.63v6.06h4.06v5.38h-4.06v5.76c0,2.22.16,2.22,4.33,2.22v5.71c-8.16.17-9.63.26-11.09-2.26-.51-1.5-.72-3.08-.63-4.66v-6.77h-2.72v-5.38h2.71v-6.06h7.4Zm-104.87,16.17c-1.01.36-2.07.68-3.17.96-1.02.19-1.99.59-2.85,1.18-.77.7-.83,1.89-.13,2.67.04.04.08.09.12.12.5.4,1.14.6,1.79.55.8,0,1.59-.2,2.29-.6.63-.32,1.16-.83,1.5-1.46.32-.7.47-1.47.44-2.23v-1.18h.02Zm62.47-6.18c-1.11-.03-2.16.49-2.81,1.39-.51.77-.8,1.66-.85,2.59h7.27c-.02-1.12-.43-2.2-1.15-3.06-.66-.63-1.55-.96-2.45-.92h0Z"/>
      <path id="Path-2" class="cls-1" d="m188.22,0l-11.55,6.18h5.5v5.12l6.05-11.3h0Z"/>
    </g>
  </g>
</svg>