<?xml version="1.0" encoding="UTF-8"?><svg id="Layer_2" xmlns="http://www.w3.org/2000/svg" xmlns:xlink="http://www.w3.org/1999/xlink" viewBox="0 0 25.64 23.92"><defs><style>.cls-1{fill:url(#linear-gradient);fill-rule:evenodd;}.cls-2{fill:#a01f21;}</style><linearGradient id="linear-gradient" x1="20.38" y1="-1.23" x2="5.92" y2="25.65" gradientTransform="matrix(1, 0, 0, 1, 0, 0)" gradientUnits="userSpaceOnUse"><stop offset="0" stop-color="#f79121"/><stop offset="1" stop-color="#d32027"/></linearGradient></defs><g id="Layer_1-2"><g><path class="cls-1" d="M23.6,8.75l-6.71-6.71c-2.72-2.72-5.43-2.72-8.15,0L2.04,8.75c-2.72,2.72-2.72,5.43,0,8.15l7.01,7.01,3.77-3.76,3.76,3.77,7.02-7.02c2.72-2.72,2.72-5.43,0-8.15Zm-10.79,7.86l-3.31-3.31c-.3-.3-.3-.61,.02-.93l2.83-2.83c.33-.31,.64-.32,.93-.02l2.84,2.84c.31,.31,.31,.63,0,.94l-3.32,3.31Zm9-1.51l-5.24,5.27-2-1.99,4.52-4.52c.7-.71,.69-1.41-.02-2.11l-5.2-5.2c-.71-.7-1.4-.7-2.09,0l-2.64,2.62s-.05,.06-.07,.07l-2.48,2.49c-.71,.71-.72,1.42-.02,2.13l4.48,4.51-1.98,1.99L3.82,15.1c-1.54-1.53-1.55-3.06-.02-4.59L10.51,3.81c1.52-1.52,3.05-1.52,4.59,.01l6.71,6.71c1.52,1.52,1.52,3.05,0,4.56Z"/><rect class="cls-2" x="9.99" y="15.81" width="2.48" height="1.97" transform="translate(-8.58 12.86) rotate(-45)"/></g></g></svg>